<?xml version="1.0" encoding="utf-8"?>
<!-- Generator: Adobe Illustrator 16.0.0, SVG Export Plug-In . SVG Version: 6.00 Build 0)  -->
<!DOCTYPE svg PUBLIC "-//W3C//DTD SVG 1.1//EN" "http://www.w3.org/Graphics/SVG/1.1/DTD/svg11.dtd">
<svg version="1.1" id="Layer_1" xmlns="http://www.w3.org/2000/svg" xmlns:xlink="http://www.w3.org/1999/xlink" x="0px" y="0px"
	 width="453.433px" height="131.937px" viewBox="0 0 453.433 131.937" enable-background="new 0 0 453.433 131.937"
	 xml:space="preserve">
<g>
	<path fill="#58595B" d="M244.232,65.711c0-45.352,11.566-65.709,52.797-65.709c41.229,0,52.539,20.357,52.539,65.709
		c0,45.61-11.311,66.225-52.539,66.225C255.8,131.936,244.232,111.321,244.232,65.711z M273.093,65.711
		c0,34.532,8.732,40.2,23.938,40.2c14.945,0,23.677-5.668,23.677-40.2c0-34.271-8.73-39.684-23.677-39.684
		C281.825,26.027,273.093,31.439,273.093,65.711z"/>
	<path fill="#58595B" d="M401.122,35.304c0,8.246,4.638,9.277,16.749,15.204l15.462,7.472c12.625,6.186,20.1,11.595,20.1,33.242
		c0,26.798-11.08,40.714-46.643,40.714c-13.142,0-24.479-1.031-28.86-3.092c-3.349-1.547-3.863-3.092-3.863-8.504v-13.916
		c0-2.062,1.288-3.092,3.091-3.092c3.35,0,12.111,2.836,28.347,2.836c15.718,0,19.842-3.352,19.842-13.145
		c0-9.018-3.607-10.308-14.173-15.46L397,70.865c-12.627-6.186-23.965-11.596-23.965-35.562C373.035,7.988,384.632,0,416.327,0
		c28.088,0,31.953,2.319,31.953,10.049v11.596c0,2.834-1.031,4.38-4.124,4.38c-4.381,0-10.31-2.062-24.224-2.062
		C405.503,23.965,401.122,25.771,401.122,35.304z"/>
	<g>
		<g>
			<g>
				<path fill="#58595B" d="M135.235,0.966c1.1,0,2.376,0.817,2.837,1.816l30.031,65.187c0.46,0.999,1.212,0.999,1.671-0.001
					l29.911-65.184c0.458-1,1.733-1.818,2.834-1.818h27.831c1.1,0,1.605,0.81,1.125,1.799l-61.913,127.372
					c-0.481,0.99-1.267,0.988-1.743-0.002L106.399,2.768c-0.478-0.991,0.031-1.801,1.131-1.801L135.235,0.966L135.235,0.966z"/>
			</g>
		</g>
	</g>
	<g>
		<g>
			<g>
				<path fill="#58595B" d="M96.421,131.936c-1.1,0-2.376-0.816-2.837-1.814L63.553,64.934c-0.46-0.999-1.212-0.999-1.671,0.001
					L31.971,130.12c-0.458,0.998-1.734,1.816-2.834,1.816H1.306c-1.1,0-1.606-0.811-1.125-1.799L62.094,2.764
					c0.481-0.989,1.266-0.988,1.743,0.002l61.42,127.367c0.478,0.99-0.031,1.801-1.131,1.801H96.421V131.936z"/>
			</g>
		</g>
	</g>
</g>
</svg>
